#N canvas 48 38 1464 916 12;
#N canvas 48 38 1464 916 (subpatch) 0;
#X obj 90 589 key;
#X floatatom 93 628 5 0 0 0 - - - 0;
#X obj 92 660 sel 113 119 101 114 116 121 117;
#X msg 101 710 0;
#X floatatom 104 752 5 0 0 0 - - - 0;
#X msg 145 709 1;
#X msg 194 708 2;
#X msg 238 707 3;
#X msg 290 708 4;
#X msg 336 705 5;
#X msg 377 706 6;
#X obj 443 587 key;
#X floatatom 446 626 5 0 0 0 - - - 0;
#X floatatom 457 750 5 0 0 0 - - - 0;
#X obj 813 588 key;
#X floatatom 816 627 5 0 0 0 - - - 0;
#X floatatom 827 751 5 0 0 0 - - - 0;
#X obj 104 796 s \$0_autoharp_chord_num;
#X obj 458 793 s \$0_autoharp_chord_num;
#X obj 828 782 s \$0_autoharp_chord_num;
#X msg 454 708 7;
#X msg 498 707 8;
#X msg 547 706 9;
#X msg 591 705 10;
#X msg 643 706 11;
#X msg 689 703 12;
#X msg 730 704 13;
#X msg 824 709 14;
#X msg 868 708 15;
#X msg 917 707 16;
#X msg 961 706 17;
#X msg 1013 707 18;
#X msg 1059 704 19;
#X msg 1100 705 20;
#X obj 559 921 r \$0_autoharp_chord_num;
#X floatatom 559 956 5 0 0 0 - - - 0;
#X obj 573 988 text get LindsaysChord;
#X obj 445 657 sel 97 115 100 102 103 104 106;
#X obj 815 658 sel 122 120 99 118 98 110 109;
#X obj 1148 590 key;
#X floatatom 1151 629 5 0 0 0 - - - 0;
#X floatatom 1162 753 5 0 0 0 - - - 0;
#X obj 1150 660 sel 49 50 51 52 53 54 55 56 57 48 45 61, f 76;
#X msg 1159 711 0;
#X msg 1203 710 1;
#X msg 1252 709 2;
#X msg 1296 708 3;
#X msg 1348 709 4;
#X msg 1394 706 5;
#X msg 1435 707 6;
#X msg 1478 707 7;
#X msg 1527 706 8;
#X msg 1571 705 9;
#X msg 1623 706 10;
#X msg 1669 703 11;
#X obj 1162 786 s \$0_autoharp_pluck;
#X listbox 573 1021 20 0 0 0 - - - 0;
#X obj 1090 851 text define -k LindsaysChord;
#A set 0 3 6 9 \; 7 10 13 16 \; 2 5 8 11 \; 7 10 14 \; 2 5 9 \; 9 12
16 \; 4 7 11 \; 5 9 12 15 \; 0 4 7 10 \; 7 11 14 17 \; 2 6 9 12 \;
9 13 16 19 \; 4 8 11 14 \; 11 15 18 21 \; 10 14 17 \; 5 9 12 \; 0 4
7 \; 7 11 14 \; 2 6 9 \; 9 13 16 \; 4 8 11 \;;
#X obj 822 1058 list length;
#X floatatom 818 1096 5 0 0 0 - - - 0;
#X obj 759 1125 %;
#X obj 658 1126 /;
#X obj 648 1058 r \$0_autoharp_pluck;
#X obj 768 1186 list store;
#X msg 767 1156 get \$1;
#X floatatom 768 1209 5 0 0 0 - - - 0;
#X obj 665 1233 +;
#X obj 881 1521 makenote 127 1000;
#X floatatom 576 1275 5 0 0 0 - - - 0;
#X obj 47 1614 mtof;
#X obj 45 1648 osc~;
#X obj 35 1996 output~;
#X obj 602 1137 int;
#X floatatom 596 1173 5 0 0 0 - - - 0;
#X obj 639 1191 * 12;
#X obj 665 1258 + 12;
#X floatatom 331 1068 5 0 0 0 - - - 0;
#X obj 329 1115 +;
#X obj 881 1643 makenote 127 1000;
#X obj 882 1681 noteout;
#X obj 882 1564 noteout;
#X obj 39 1809 rev3~, f 116;
#X floatatom 652 1741 5 0 0 0 - - - 0;
#X floatatom 699 1741 5 0 100 0 - - - 0;
#X floatatom 757 1743 5 0 0 0 - - - 0;
#X floatatom 807 1746 5 0 100 0 - - - 0;
#X obj 177 1648 line~;
#X obj 41 1765 *~;
#X msg 178 1599 1 \, 0 899;
#X obj 648 1081 t f f;
#X obj 666 1285 t b f;
#X floatatom 1499 1238 4 0 1000 0 - - - 0;
#X obj 1548 1265 t b f;
#X floatatom 1547 1210 5 0 2000 0 - - - 0;
#X msg 1499 1335 pos \$1 \$2;
#X text 1420 1238 x-position;
#X obj 1499 1294 pack 265 350;
#X msg 371 2018 level \$1;
#X obj 385 268 bng 35 250 50 0 empty \$0_string_indicator empty 17
7 0 10 #e8e828 #004450 #00ff04;
#X obj 385 370 bng 55 250 50 0 empty \$0_root_indicator empty 17 7
0 10 #404040 #3c50fc #00ff04;
#X obj 322 1142 t b f;
#X floatatom 1373 1303 4 0 1000 0 - - - 0;
#X obj 1422 1330 t b f;
#X floatatom 1421 1275 5 0 500 0 - - - 0;
#X msg 1373 1400 pos \$1 \$2;
#X text 1294 1303 x-position;
#X obj 1534 1115 -;
#X obj 366 1611 mtof;
#X obj 364 1651 osc~;
#X obj 381 1690 line~;
#X obj 362 1724 *~;
#X obj 41 148 bng 35 250 50 0 empty empty Co 17 7 0 25 #fcfcfc #000000
#000000;
#X obj 108 148 bng 35 250 50 0 empty empty Do 17 7 0 25 #fcfcfc #000000
#000000;
#X obj 170 147 bng 35 250 50 0 empty empty Go 17 7 0 25 #fcfcfc #000000
#000000;
#X obj 233 146 bng 35 250 50 0 empty empty Gm 17 7 0 25 #fcfcfc #000000
#000000;
#X obj 300 146 bng 35 250 50 0 empty empty Dm 17 7 0 25 #fcfcfc #000000
#000000;
#X obj 362 145 bng 35 250 50 0 empty empty Am 17 7 0 25 #fcfcfc #000000
#000000;
#X obj 427 144 bng 35 250 50 0 empty empty Em 17 7 0 25 #fcfcfc #000000
#000000;
#X obj 62 197 bng 35 250 50 0 empty empty F7 17 7 0 25 #fcfcfc #000000
#000000;
#X obj 129 197 bng 35 250 50 0 empty empty C7 17 7 0 25 #fcfcfc #000000
#000000;
#X obj 191 196 bng 35 250 50 0 empty empty G7 17 7 0 25 #fcfcfc #000000
#000000;
#X obj 254 195 bng 35 250 50 0 empty empty D7 17 7 0 25 #fcfcfc #000000
#000000;
#X obj 321 195 bng 35 250 50 0 empty empty A7 17 7 0 25 #fcfcfc #000000
#000000;
#X obj 383 194 bng 35 250 50 0 empty empty E7 17 7 0 25 #fcfcfc #000000
#000000;
#X obj 448 193 bng 35 250 50 0 empty empty B7 17 7 0 25 #fcfcfc #000000
#000000;
#X obj 83 247 bng 35 250 50 0 empty empty Bb 17 7 0 25 #fcfcfc #000000
#000000;
#X obj 150 247 bng 35 250 50 0 empty empty F 17 7 0 25 #fcfcfc #000000
#000000;
#X obj 212 246 bng 35 250 50 0 empty empty C 17 7 0 25 #fcfcfc #000000
#000000;
#X obj 275 245 bng 35 250 50 0 empty empty G 17 7 0 25 #fcfcfc #000000
#000000;
#X obj 342 245 bng 35 250 50 0 empty empty D 17 7 0 25 #fcfcfc #000000
#000000;
#X obj 404 244 bng 35 250 50 0 empty empty A 17 7 0 25 #fcfcfc #000000
#000000;
#X obj 469 243 bng 35 250 50 0 empty empty E 17 7 0 25 #fcfcfc #000000
#000000;
#X obj 525 52 vsl 15 128 60 100 0 1 empty empty 音量\\\ Volume 0
-9 0 10 #c6ffc7 #000000 #000000 15874 0;
#X obj 556 70 vsl 15 128 1 100 0 1 empty empty 混响回授\\\ rev\\\ fbk
0 -9 0 10 #fcfcfc #000000 #000000 13854 0;
#X obj 583 91 vsl 15 128 1 10000 1 1 empty empty 制音频点\\\ damp\\\ freq\\\ split
0 -9 0 10 #c6feff #000000 #000000 14996 0;
#X obj 621 126 vsl 15 128 1 100 0 1 empty empty 制音强度\\\ damp\\\ strength
0 -9 0 10 #fcfcfc #000000 #000000 19198 0;
#X obj 674 323 pack f f f f;
#X obj 683 351 s \$0_autoharp_rev_ctrl;
#X obj 656 1665 r \$0_autoharp_rev_ctrl;
#X obj 662 1693 unpack f f f f;
#X obj 684 285 t b f;
#X obj 750 286 t b f;
#X obj 805 274 t b f;
#X floatatom 998 282 4 0 1000 0 - - - 0;
#X floatatom 1088 291 5 0 500 0 - - - 0;
#X msg 1023 429 pos \$1 \$2;
#X text 944 331 x-position;
#X obj 1023 388 pack 265 350;
#X obj 200 210 bng 25 250 50 0 empty \$0_chord_indicator empty 17 7
0 10 #fcfcc8 #583000 #000000;
#X floatatom 1011 181 5 0 0 0 - - - 0;
#X obj 993 51 r \$0_autoharp_chord_num;
#X floatatom 993 93 5 0 0 0 - - - 0;
#X obj 994 140 % 7;
#X obj 1043 143 / 7;
#X floatatom 1108 187 5 0 0 0 - - - 0;
#X text 1070 266 y-position;
#X obj 1065 177 int;
#X obj 1022 312 + 40;
#X obj 1086 317 + 150;
#X obj 1047 230 * 60;
#X obj 1030 341 +;
#X obj 1065 200 * 30;
#X obj 998 115 t f f;
#X obj 995 226 * 65;
#X obj 77 332 nbx 5 25 -1e+37 1e+37 0 1 empty empty 根音移调\\\ Root\\\ Transpose
0 -8 0 15 #ffc7c6 #000000 #000000 36 256;
#X obj 97 376 nbx 5 25 -1e+37 1e+37 0 1 empty empty 弦移调\\\ String\\\ Transpose
0 -8 0 15 #ffe3c6 #000000 #000000 36 256;
#X obj 1376 1210 * 55;
#X obj 1373 1360 pack 265 370;
#X obj 300 348 nbx 5 25 1 64 0 1 empty empty 根音通道\\\ Root\\\ MIDI\\\ Ch
0 -8 0 15 #faff00 #000000 #000000 19 256;
#X obj 283 397 nbx 5 25 1 64 0 1 empty empty 弦通道\\\ String\\\ MIDI\\\ Ch
0 -8 0 15 #00ff04 #000000 #000000 3 256;
#X obj 1480 979 loadbang;
#X obj 1542 1058 t b f;
#X obj 1560 1018 * 8;
#N canvas 585 193 2541 974 random_color 0;
#X obj 40 24 inlet;
#X obj 44 66 random 29;
#X obj 122 67 random 29;
#X obj 47 97 pack f f;
#X msg 47 127 color \$1 \$2;
#X obj 51 156 outlet;
#X connect 0 0 1 0;
#X connect 0 0 2 0;
#X connect 1 0 3 0;
#X connect 2 0 3 1;
#X connect 3 0 4 0;
#X connect 4 0 5 0;
#X restore 1171 427 pd random_color;
#N canvas 585 193 2541 974 random_color 0;
#X obj 40 24 inlet;
#X obj 44 66 random 29;
#X obj 122 67 random 29;
#X obj 47 97 pack f f;
#X msg 47 127 color \$1 \$2;
#X obj 51 156 outlet;
#X connect 0 0 1 0;
#X connect 0 0 2 0;
#X connect 1 0 3 0;
#X connect 2 0 3 1;
#X connect 3 0 4 0;
#X connect 4 0 5 0;
#X restore 1635 1332 pd random_color;
#X obj 1634 1297 r \$0_string_note_trig;
#X obj 671 1321 s \$0_string_note_trig;
#X obj 1289 1462 s \$0_root_indicator;
#X obj 1501 1375 s \$0_string_indicator;
#X obj 307 1195 s \$0_root_note_trig;
#X obj 1217 1386 r \$0_root_note_trig;
#N canvas 585 193 2541 974 random_color 0;
#X obj 40 24 inlet;
#X obj 44 66 random 29;
#X obj 122 67 random 29;
#X obj 47 97 pack f f;
#X msg 47 127 color \$1 \$2;
#X obj 51 156 outlet;
#X connect 0 0 1 0;
#X connect 0 0 2 0;
#X connect 1 0 3 0;
#X connect 2 0 3 1;
#X connect 3 0 4 0;
#X connect 4 0 5 0;
#X restore 1216 1420 pd random_color;
#X obj 1022 464 s \$0_chord_indicator;
#X obj 1165 390 r \$0_root_note_trig;
#X obj 746 131 namecanvas ah;
#X msg 750 203 \; ah vis 0;
#X obj 750 155 loadbang;
#X msg 750 178 delay 1000 1 msec;
#X obj 11 45 cnv 15 100 5 empty empty 孟奇\\\ 自鸣筝啊 20 -15
0 35 #c6feff #228920 0;
#X obj 496 22 tgl 25 1 empty empty 内部音源\\\ internal\\\ sound
17 7 0 10 #0f4710 #c6ffc7 #000000 1 1;
#X msg 386 1931 0 100;
#X msg 441 1934 100 100;
#X floatatom 376 1989 5 0 0 0 - - - 0;
#X obj 394 1958 line;
#X obj 391 1899 sel 0 1;
#X obj 71 82 cnv 15 100 5 empty empty Meng\\\ Qi\\\ autoharp 20 -15
0 35 #c6ffc7 #ff8300 0;
#X floatatom 1503 1088 5 0 0 0 - - - 0;
#X msg 1472 1004 set 668;
#X obj 500 314 hsl 110 35 50 3000 1 1 empty empty 根音长\\\ root\\\ note\\\ dur
-2 -8 0 10 #9c00ff #ffffff #9c00ff 15600 0;
#X obj 515 368 hsl 110 35 50 3000 1 1 empty empty 弦音长\\\ string\\\ note\\\ dur
-2 -8 0 10 #0400ff #ffffff #0400ff 15384 0;
#X obj 512 408 s \$0_string_note_dur;
#X obj 497 354 s \$0_root_note_dur;
#X obj 502 1485 r \$0_root_note_dur;
#X floatatom 525 1517 5 0 0 0 - - - 0;
#X msg 505 1624 1 \, 0 936.2;
#N canvas 680 275 832 548 decay_line_format 0;
#X msg 224 183 addcomma;
#X msg 310 183 set 1;
#X msg 138 183 add2 0 \$1;
#X floatatom 189 60 5 0 0 0 - - - 0;
#X obj 185 96 t f b b;
#X obj 189 20 inlet;
#X obj 206 261 outlet;
#X connect 0 0 6 0;
#X connect 1 0 6 0;
#X connect 2 0 6 0;
#X connect 3 0 4 0;
#X connect 4 0 2 0;
#X connect 4 1 0 0;
#X connect 4 2 1 0;
#X connect 5 0 3 0;
#X coords 0 0 0.25 0.25 0 0 0;
#X restore 521 1549 pd decay_line_format;
#X floatatom 173 1518 5 0 0 0 - - - 0;
#N canvas 1119 275 832 548 decay_line_format 0;
#X msg 224 183 addcomma;
#X msg 310 183 set 1;
#X msg 138 183 add2 0 \$1;
#X floatatom 189 60 5 0 0 0 - - - 0;
#X obj 185 96 t f b b;
#X obj 189 20 inlet;
#X obj 206 261 outlet;
#X connect 0 0 6 0;
#X connect 1 0 6 0;
#X connect 2 0 6 0;
#X connect 3 0 4 0;
#X connect 4 0 2 0;
#X connect 4 1 0 0;
#X connect 4 2 1 0;
#X connect 5 0 3 0;
#X coords 0 0 0.25 0.25 0 0 0;
#X restore 171 1548 pd decay_line_format;
#X obj 150 1486 r \$0_string_note_dur;
#X floatatom 499 318 5 0 0 0 - - - 0;
#X floatatom 517 376 5 0 0 0 - - - 0;
#X obj 692 24 loadbang;
#X msg 690 52 55;
#X msg 659 46 85;
#X floatatom 671 216 5 0 0 0 - - - 0;
#X msg 757 62 230;
#X msg 799 72 75.83;
#X msg 855 75 936.2;
#X msg 867 101 899;
#X obj 997 1614 r \$0_root_note_dur;
#X obj 341 466 s \$0_root_midi_ch;
#X obj 289 436 s \$0_string_midi_ch;
#X obj 995 1671 r \$0_root_midi_ch;
#X obj 995 1487 r \$0_string_note_dur;
#X obj 991 1550 r \$0_string_midi_ch;
#X obj 483 1582 r \$0_root_note_trig;
#X obj 119 1114 s \$0_root_note_no_transpose;
#X obj 1372 1165 r \$0_root_note_no_transpose;
#X obj 366 1165 s \$0_root_note;
#X obj 366 1578 r \$0_root_note;
#X obj 881 1598 r \$0_root_note;
#X obj 327 100 s \$0_internal_sound_switch;
#X obj 402 1855 r \$0_internal_sound_switch;
#X obj 740 1295 s \$0_string_note;
#X obj 881 1473 r \$0_string_note;
#X obj 1555 980 r \$0_string_note;
#X obj 881 1441 cnv 15 250 25 empty empty MIDI\ Output 20 12 0 14 #ffe3c6
#404040 0;
#X obj 79 543 cnv 15 1555 25 empty empty Get\ Key\ Values 20 12 0 14
#c6ffc7 #404040 0;
#X obj 167 589 cnv 15 100 60 empty empty Q\ row 20 12 0 55 #dfdfdf
#404040 0;
#X obj 512 587 cnv 15 100 60 empty empty A\ row 20 12 0 55 #dfdfdf
#404040 0;
#X obj 877 587 cnv 15 100 60 empty empty Z\ row 20 12 0 55 #dfdfdf
#404040 0;
#X obj 1211 587 cnv 15 100 60 empty empty number\ row 20 12 0 55 #dfdfdf
#404040 0;
#X obj 47 1579 r \$0_string_note;
#X obj 192 1573 r \$0_string_note_trig;
#X obj 49 1435 cnv 15 250 25 empty empty Root\ Ch\ Sound 20 12 0 14
#c6ffc7 #404040 0;
#X obj 369 1439 cnv 15 250 25 empty empty String\ Ch\ Sound 20 12 0
14 #00faff #404040 0;
#X obj 118 876 cnv 15 899 25 empty empty Get\ Notes 20 12 0 14 #feffc6
#404040 0;
#X obj 1207 930 cnv 15 550 25 empty empty Note\ Indicators 20 12 0
14 #c6ffc7 #404040 0;
#X obj 954 15 cnv 15 350 25 empty empty Chord\ Indicator 20 12 0 14
#feffc6 #404040 0;
#X connect 0 0 1 0;
#X connect 1 0 2 0;
#X connect 2 0 3 0;
#X connect 2 1 5 0;
#X connect 2 2 6 0;
#X connect 2 3 7 0;
#X connect 2 4 8 0;
#X connect 2 5 9 0;
#X connect 2 6 10 0;
#X connect 3 0 4 0;
#X connect 4 0 17 0;
#X connect 5 0 4 0;
#X connect 6 0 4 0;
#X connect 7 0 4 0;
#X connect 8 0 4 0;
#X connect 9 0 4 0;
#X connect 10 0 4 0;
#X connect 11 0 12 0;
#X connect 12 0 37 0;
#X connect 13 0 18 0;
#X connect 14 0 15 0;
#X connect 15 0 38 0;
#X connect 16 0 19 0;
#X connect 20 0 13 0;
#X connect 21 0 13 0;
#X connect 22 0 13 0;
#X connect 23 0 13 0;
#X connect 24 0 13 0;
#X connect 25 0 13 0;
#X connect 26 0 13 0;
#X connect 27 0 16 0;
#X connect 28 0 16 0;
#X connect 29 0 16 0;
#X connect 30 0 16 0;
#X connect 31 0 16 0;
#X connect 32 0 16 0;
#X connect 33 0 16 0;
#X connect 34 0 35 0;
#X connect 35 0 36 0;
#X connect 36 0 56 0;
#X connect 37 0 20 0;
#X connect 37 1 21 0;
#X connect 37 2 22 0;
#X connect 37 3 23 0;
#X connect 37 4 24 0;
#X connect 37 5 25 0;
#X connect 37 6 26 0;
#X connect 38 0 27 0;
#X connect 38 1 28 0;
#X connect 38 2 29 0;
#X connect 38 3 30 0;
#X connect 38 4 31 0;
#X connect 38 5 32 0;
#X connect 38 6 33 0;
#X connect 39 0 40 0;
#X connect 40 0 42 0;
#X connect 41 0 55 0;
#X connect 42 0 43 0;
#X connect 42 1 44 0;
#X connect 42 2 45 0;
#X connect 42 3 46 0;
#X connect 42 4 47 0;
#X connect 42 5 48 0;
#X connect 42 6 49 0;
#X connect 42 7 50 0;
#X connect 42 8 51 0;
#X connect 42 9 52 0;
#X connect 42 10 53 0;
#X connect 42 11 54 0;
#X connect 43 0 41 0;
#X connect 44 0 41 0;
#X connect 45 0 41 0;
#X connect 46 0 41 0;
#X connect 47 0 41 0;
#X connect 48 0 41 0;
#X connect 49 0 41 0;
#X connect 50 0 41 0;
#X connect 51 0 41 0;
#X connect 52 0 41 0;
#X connect 53 0 41 0;
#X connect 54 0 41 0;
#X connect 56 0 58 0;
#X connect 56 0 63 1;
#X connect 56 0 76 0;
#X connect 58 0 59 0;
#X connect 59 0 61 1;
#X connect 59 0 60 1;
#X connect 60 0 64 0;
#X connect 61 0 72 0;
#X connect 62 0 89 0;
#X connect 63 0 65 0;
#X connect 64 0 63 0;
#X connect 65 0 66 1;
#X connect 66 0 68 0;
#X connect 66 0 75 0;
#X connect 67 0 80 0;
#X connect 67 1 80 1;
#X connect 69 0 70 0;
#X connect 70 0 87 0;
#X connect 72 0 73 0;
#X connect 73 0 74 0;
#X connect 74 0 66 0;
#X connect 75 0 90 0;
#X connect 76 0 77 0;
#X connect 76 0 226 0;
#X connect 77 0 100 0;
#X connect 78 0 79 0;
#X connect 78 1 79 1;
#X connect 81 0 71 0;
#X connect 81 1 71 1;
#X connect 82 0 81 2;
#X connect 83 0 81 3;
#X connect 84 0 81 4;
#X connect 85 0 81 5;
#X connect 86 0 87 1;
#X connect 87 0 81 0;
#X connect 88 0 86 0;
#X connect 89 0 61 0;
#X connect 89 1 60 0;
#X connect 90 0 176 0;
#X connect 90 1 233 0;
#X connect 91 0 96 0;
#X connect 92 0 96 0;
#X connect 92 1 96 1;
#X connect 93 0 92 0;
#X connect 94 0 178 0;
#X connect 96 0 94 0;
#X connect 97 0 71 0;
#X connect 100 0 179 0;
#X connect 100 1 228 0;
#X connect 101 0 167 0;
#X connect 102 0 167 0;
#X connect 102 1 167 1;
#X connect 103 0 102 0;
#X connect 104 0 177 0;
#X connect 106 0 93 0;
#X connect 107 0 108 0;
#X connect 108 0 110 0;
#X connect 109 0 110 1;
#X connect 110 0 81 1;
#X connect 132 0 136 0;
#X connect 133 0 140 0;
#X connect 134 0 141 0;
#X connect 134 0 214 0;
#X connect 135 0 142 0;
#X connect 135 0 214 0;
#X connect 136 0 137 0;
#X connect 138 0 139 0;
#X connect 139 0 82 0;
#X connect 139 1 83 0;
#X connect 139 2 84 0;
#X connect 139 3 85 0;
#X connect 140 0 136 0;
#X connect 140 1 136 1;
#X connect 141 0 136 0;
#X connect 141 1 136 2;
#X connect 142 0 136 0;
#X connect 142 1 136 3;
#X connect 143 0 157 0;
#X connect 144 0 158 0;
#X connect 145 0 182 0;
#X connect 147 0 145 0;
#X connect 149 0 163 1;
#X connect 150 0 151 0;
#X connect 151 0 162 0;
#X connect 152 0 163 0;
#X connect 153 0 156 0;
#X connect 154 0 159 1;
#X connect 156 0 159 0;
#X connect 156 0 161 0;
#X connect 157 0 160 0;
#X connect 158 0 147 1;
#X connect 159 0 144 0;
#X connect 160 0 147 0;
#X connect 161 0 160 1;
#X connect 162 0 152 0;
#X connect 162 1 153 0;
#X connect 163 0 143 0;
#X connect 164 0 77 1;
#X connect 165 0 75 1;
#X connect 166 0 101 0;
#X connect 166 0 91 0;
#X connect 167 0 104 0;
#X connect 168 0 220 0;
#X connect 169 0 221 0;
#X connect 170 0 197 0;
#X connect 171 0 196 0;
#X connect 171 1 106 1;
#X connect 172 0 171 0;
#X connect 173 0 182 0;
#X connect 174 0 178 0;
#X connect 175 0 174 0;
#X connect 175 0 178 0;
#X connect 180 0 181 0;
#X connect 180 0 177 0;
#X connect 181 0 177 0;
#X connect 183 0 173 0;
#X connect 183 0 182 0;
#X connect 186 0 187 0;
#X connect 187 0 185 0;
#X connect 189 0 231 0;
#X connect 190 0 193 0;
#X connect 191 0 193 0;
#X connect 192 0 97 0;
#X connect 193 0 192 0;
#X connect 194 0 190 0;
#X connect 194 1 191 0;
#X connect 196 0 106 0;
#X connect 197 0 196 0;
#X connect 198 0 201 0;
#X connect 198 0 209 0;
#X connect 199 0 200 0;
#X connect 199 0 210 0;
#X connect 202 0 203 0;
#X connect 203 0 205 0;
#X connect 204 0 109 0;
#X connect 205 0 204 0;
#X connect 206 0 207 0;
#X connect 207 0 88 0;
#X connect 208 0 206 0;
#X connect 211 0 212 0;
#X connect 211 0 213 0;
#X connect 211 0 215 0;
#X connect 211 0 216 0;
#X connect 211 0 217 0;
#X connect 211 0 218 0;
#X connect 212 0 133 0;
#X connect 213 0 132 0;
#X connect 215 0 134 0;
#X connect 216 0 135 0;
#X connect 217 0 198 0;
#X connect 218 0 199 0;
#X connect 219 0 78 2;
#X connect 222 0 79 2;
#X connect 223 0 67 2;
#X connect 224 0 80 2;
#X connect 225 0 204 0;
#X connect 227 0 166 0;
#X connect 229 0 107 0;
#X connect 230 0 78 0;
#X connect 232 0 194 0;
#X connect 234 0 67 0;
#X connect 235 0 172 0;
#X connect 242 0 69 0;
#X connect 243 0 88 0;
#X coords 1 1 -1 -1 650 450 1 0 0;
#X restore 30 27 graph;
#X coords 0 0 0.5 0.5 0 0 0;
